<mxfile host="app.diagrams.net" modified="2024-05-31T07:39:17.206Z" agent="Mozilla/5.0 (Windows NT 10.0; Win64; x64) AppleWebKit/537.36 (KHTML, like Gecko) Chrome/99.0.4844.84 Safari/537.36 HBPC/12.1.3.303" etag="Zp_H3FrTE-ZZVvkaiZNO" version="24.4.10" type="device">
  <diagram id="R2lEEEUBdFMjLlhIrx00" name="Page-1">
    <mxGraphModel dx="1050" dy="515" grid="1" gridSize="10" guides="1" tooltips="1" connect="1" arrows="1" fold="1" page="1" pageScale="1" pageWidth="850" pageHeight="1100" math="0" shadow="0" extFonts="Permanent Marker^https://fonts.googleapis.com/css?family=Permanent+Marker">
      <root>
        <mxCell id="0" />
        <mxCell id="1" parent="0" />
        <mxCell id="dKzopvyaW-b2cjg5XDCs-1" value="城市" style="rounded=0;whiteSpace=wrap;html=1;" vertex="1" parent="1">
          <mxGeometry x="190" y="320" width="80" height="40" as="geometry" />
        </mxCell>
        <mxCell id="dKzopvyaW-b2cjg5XDCs-3" value="" style="endArrow=none;html=1;rounded=0;" edge="1" parent="1">
          <mxGeometry width="50" height="50" relative="1" as="geometry">
            <mxPoint x="270" y="340" as="sourcePoint" />
            <mxPoint x="300" y="340" as="targetPoint" />
          </mxGeometry>
        </mxCell>
        <mxCell id="dKzopvyaW-b2cjg5XDCs-4" value="取得" style="rhombus;whiteSpace=wrap;html=1;" vertex="1" parent="1">
          <mxGeometry x="280" y="320" width="60" height="40" as="geometry" />
        </mxCell>
        <mxCell id="dKzopvyaW-b2cjg5XDCs-5" value="" style="endArrow=none;html=1;rounded=0;entryX=0;entryY=0.5;entryDx=0;entryDy=0;" edge="1" parent="1">
          <mxGeometry width="50" height="50" relative="1" as="geometry">
            <mxPoint x="340" y="340" as="sourcePoint" />
            <mxPoint x="350" y="340" as="targetPoint" />
          </mxGeometry>
        </mxCell>
        <mxCell id="dKzopvyaW-b2cjg5XDCs-6" value="" style="endArrow=none;html=1;rounded=0;" edge="1" parent="1" target="dKzopvyaW-b2cjg5XDCs-7">
          <mxGeometry width="50" height="50" relative="1" as="geometry">
            <mxPoint x="230" y="320" as="sourcePoint" />
            <mxPoint x="210" y="290" as="targetPoint" />
          </mxGeometry>
        </mxCell>
        <mxCell id="dKzopvyaW-b2cjg5XDCs-7" value="名称" style="ellipse;whiteSpace=wrap;html=1;" vertex="1" parent="1">
          <mxGeometry x="130" y="240" width="80" height="60" as="geometry" />
        </mxCell>
        <mxCell id="dKzopvyaW-b2cjg5XDCs-8" value="" style="endArrow=none;html=1;rounded=0;" edge="1" parent="1" target="dKzopvyaW-b2cjg5XDCs-9">
          <mxGeometry width="50" height="50" relative="1" as="geometry">
            <mxPoint x="230" y="320" as="sourcePoint" />
            <mxPoint x="260" y="290" as="targetPoint" />
          </mxGeometry>
        </mxCell>
        <mxCell id="dKzopvyaW-b2cjg5XDCs-9" value="面积" style="ellipse;whiteSpace=wrap;html=1;" vertex="1" parent="1">
          <mxGeometry x="260" y="240" width="80" height="60" as="geometry" />
        </mxCell>
        <mxCell id="dKzopvyaW-b2cjg5XDCs-10" value="" style="endArrow=none;html=1;rounded=0;" edge="1" parent="1" source="dKzopvyaW-b2cjg5XDCs-12">
          <mxGeometry width="50" height="50" relative="1" as="geometry">
            <mxPoint x="210" y="380" as="sourcePoint" />
            <mxPoint x="230" y="360" as="targetPoint" />
          </mxGeometry>
        </mxCell>
        <mxCell id="dKzopvyaW-b2cjg5XDCs-12" value="人口数量" style="ellipse;whiteSpace=wrap;html=1;" vertex="1" parent="1">
          <mxGeometry x="120" y="380" width="80" height="60" as="geometry" />
        </mxCell>
        <mxCell id="dKzopvyaW-b2cjg5XDCs-13" value="" style="endArrow=none;html=1;rounded=0;" edge="1" parent="1" source="dKzopvyaW-b2cjg5XDCs-14">
          <mxGeometry width="50" height="50" relative="1" as="geometry">
            <mxPoint x="310" y="380" as="sourcePoint" />
            <mxPoint x="310" y="360" as="targetPoint" />
          </mxGeometry>
        </mxCell>
        <mxCell id="dKzopvyaW-b2cjg5XDCs-14" value="年份" style="ellipse;whiteSpace=wrap;html=1;" vertex="1" parent="1">
          <mxGeometry x="340" y="380" width="80" height="60" as="geometry" />
        </mxCell>
        <mxCell id="dKzopvyaW-b2cjg5XDCs-15" value="收入" style="rounded=0;whiteSpace=wrap;html=1;" vertex="1" parent="1">
          <mxGeometry x="350" y="320" width="80" height="40" as="geometry" />
        </mxCell>
        <mxCell id="dKzopvyaW-b2cjg5XDCs-16" value="" style="endArrow=none;html=1;rounded=0;" edge="1" parent="1" target="dKzopvyaW-b2cjg5XDCs-18">
          <mxGeometry width="50" height="50" relative="1" as="geometry">
            <mxPoint x="430" y="340" as="sourcePoint" />
            <mxPoint x="450" y="320" as="targetPoint" />
          </mxGeometry>
        </mxCell>
        <mxCell id="dKzopvyaW-b2cjg5XDCs-18" value="收入类型" style="ellipse;whiteSpace=wrap;html=1;" vertex="1" parent="1">
          <mxGeometry x="440" y="190" width="80" height="60" as="geometry" />
        </mxCell>
        <mxCell id="dKzopvyaW-b2cjg5XDCs-19" value="" style="endArrow=none;html=1;rounded=0;" edge="1" parent="1" target="dKzopvyaW-b2cjg5XDCs-20">
          <mxGeometry width="50" height="50" relative="1" as="geometry">
            <mxPoint x="430" y="340" as="sourcePoint" />
            <mxPoint x="460" y="350" as="targetPoint" />
          </mxGeometry>
        </mxCell>
        <mxCell id="dKzopvyaW-b2cjg5XDCs-20" value="收入量" style="ellipse;whiteSpace=wrap;html=1;" vertex="1" parent="1">
          <mxGeometry x="500" y="240" width="80" height="60" as="geometry" />
        </mxCell>
        <mxCell id="dKzopvyaW-b2cjg5XDCs-21" value="" style="endArrow=none;html=1;rounded=0;" edge="1" parent="1" source="dKzopvyaW-b2cjg5XDCs-23">
          <mxGeometry width="50" height="50" relative="1" as="geometry">
            <mxPoint x="460" y="400" as="sourcePoint" />
            <mxPoint x="430" y="340" as="targetPoint" />
          </mxGeometry>
        </mxCell>
        <mxCell id="dKzopvyaW-b2cjg5XDCs-23" value="收入等级" style="ellipse;whiteSpace=wrap;html=1;" vertex="1" parent="1">
          <mxGeometry x="520" y="310" width="80" height="60" as="geometry" />
        </mxCell>
        <mxCell id="dKzopvyaW-b2cjg5XDCs-24" value="" style="endArrow=none;html=1;rounded=0;" edge="1" parent="1" source="dKzopvyaW-b2cjg5XDCs-27">
          <mxGeometry width="50" height="50" relative="1" as="geometry">
            <mxPoint x="460" y="390" as="sourcePoint" />
            <mxPoint x="430" y="340" as="targetPoint" />
          </mxGeometry>
        </mxCell>
        <mxCell id="dKzopvyaW-b2cjg5XDCs-27" value="同比增长率" style="ellipse;whiteSpace=wrap;html=1;" vertex="1" parent="1">
          <mxGeometry x="500" y="380" width="80" height="60" as="geometry" />
        </mxCell>
        <mxCell id="dKzopvyaW-b2cjg5XDCs-28" value="" style="endArrow=none;html=1;rounded=0;" edge="1" parent="1" source="dKzopvyaW-b2cjg5XDCs-29">
          <mxGeometry width="50" height="50" relative="1" as="geometry">
            <mxPoint x="450" y="430" as="sourcePoint" />
            <mxPoint x="430" y="340" as="targetPoint" />
          </mxGeometry>
        </mxCell>
        <mxCell id="dKzopvyaW-b2cjg5XDCs-29" value="环比增长率" style="ellipse;whiteSpace=wrap;html=1;" vertex="1" parent="1">
          <mxGeometry x="440" y="440" width="80" height="60" as="geometry" />
        </mxCell>
        <mxCell id="dKzopvyaW-b2cjg5XDCs-30" value="地区" style="ellipse;whiteSpace=wrap;html=1;" vertex="1" parent="1">
          <mxGeometry x="230" y="380" width="80" height="60" as="geometry" />
        </mxCell>
        <mxCell id="dKzopvyaW-b2cjg5XDCs-31" value="" style="endArrow=none;html=1;rounded=0;" edge="1" parent="1" source="dKzopvyaW-b2cjg5XDCs-30">
          <mxGeometry width="50" height="50" relative="1" as="geometry">
            <mxPoint x="250" y="410" as="sourcePoint" />
            <mxPoint x="230" y="360" as="targetPoint" />
          </mxGeometry>
        </mxCell>
      </root>
    </mxGraphModel>
  </diagram>
</mxfile>
